<?xml version="1.0" standalone="no"?>
<svg xmlns:xlink="http://www.w3.org/1999/xlink" id="wave" style="transform:rotate(180deg); transition: 0.3s" viewBox="0 0 1440 120" version="1.1" xmlns="http://www.w3.org/2000/svg"><defs><linearGradient id="sw-gradient-0" x1="0" x2="0" y1="1" y2="0"><stop stop-color="rgba(255, 255, 255, 1)" offset="0%"/><stop stop-color="rgba(255, 255, 255, 1)" offset="100%"/></linearGradient></defs><path style="transform:translate(0, 0px); opacity:1" fill="url(#sw-gradient-0)" d="M0,36L26.7,42C53.3,48,107,60,160,64C213.3,68,267,64,320,64C373.3,64,427,68,480,70C533.3,72,587,72,640,66C693.3,60,747,48,800,44C853.3,40,907,44,960,52C1013.3,60,1067,72,1120,76C1173.3,80,1227,76,1280,64C1333.3,52,1387,32,1440,20C1493.3,8,1547,4,1600,18C1653.3,32,1707,64,1760,66C1813.3,68,1867,40,1920,42C1973.3,44,2027,76,2080,88C2133.3,100,2187,92,2240,78C2293.3,64,2347,44,2400,42C2453.3,40,2507,56,2560,58C2613.3,60,2667,48,2720,46C2773.3,44,2827,52,2880,48C2933.3,44,2987,28,3040,30C3093.3,32,3147,52,3200,50C3253.3,48,3307,24,3360,22C3413.3,20,3467,40,3520,44C3573.3,48,3627,36,3680,32C3733.3,28,3787,32,3813,34L3840,36L3840,120L3813.3,120C3786.7,120,3733,120,3680,120C3626.7,120,3573,120,3520,120C3466.7,120,3413,120,3360,120C3306.7,120,3253,120,3200,120C3146.7,120,3093,120,3040,120C2986.7,120,2933,120,2880,120C2826.7,120,2773,120,2720,120C2666.7,120,2613,120,2560,120C2506.7,120,2453,120,2400,120C2346.7,120,2293,120,2240,120C2186.7,120,2133,120,2080,120C2026.7,120,1973,120,1920,120C1866.7,120,1813,120,1760,120C1706.7,120,1653,120,1600,120C1546.7,120,1493,120,1440,120C1386.7,120,1333,120,1280,120C1226.7,120,1173,120,1120,120C1066.7,120,1013,120,960,120C906.7,120,853,120,800,120C746.7,120,693,120,640,120C586.7,120,533,120,480,120C426.7,120,373,120,320,120C266.7,120,213,120,160,120C106.7,120,53,120,27,120L0,120Z"/></svg>